<svg width="178" height="54" viewBox="0 0 178 54" fill="none" xmlns="http://www.w3.org/2000/svg">
<path d="M4.47355 34.4338C4.47355 35.7446 4.19403 35.9941 2.85928 35.9941H1.74122C0.375061 35.9941 0.126953 35.7446 0.126953 34.4338V15.7672C0.126953 14.1121 0.343655 13.8942 2.05214 13.8942H7.51365C13.1008 13.8942 17.1365 15.9851 17.1365 20.8239C17.1365 24.2888 15.2427 26.2565 12.2936 27.1598L17.3218 34.2759C17.6641 34.7434 17.818 35.1192 17.818 35.4003C17.818 35.8078 17.4128 35.9941 16.6371 35.9941H15.5819C13.8451 35.9941 13.5028 35.8394 12.7899 34.8065L7.88424 27.7821H4.47041V34.4307L4.47355 34.4338ZM4.47355 17.3275V24.3519H7.51679C10.6197 24.3519 12.5135 23.1959 12.5135 20.8239C12.5135 18.4519 10.6197 17.3275 7.51679 17.3275H4.47355Z" fill="#C4D600"/>
<path d="M26.4169 34.4338C26.4169 35.7446 26.1374 35.9941 24.8026 35.9941H23.6846C22.3184 35.9941 22.0703 35.7446 22.0703 34.4338V15.7672C22.0703 14.1121 22.287 13.8942 23.9955 13.8942H24.4917C26.1688 13.8942 26.4169 14.1121 26.4169 15.7672V34.4338Z" fill="#C4D600"/>
<path d="M35.6975 19.7627C35.6975 22.2294 38.8319 22.5421 41.4386 23.2591C44.821 24.1656 47.5219 25.7259 47.5219 29.7529C47.5219 33.78 45.0377 36.4016 38.5837 36.4016C36.7214 36.4016 34.4853 36.2152 32.7799 35.4667C31.1028 34.7181 30.4841 33.6884 30.4841 32.1566C30.4841 31.408 30.638 31.1585 30.9803 31.1585C31.197 31.1585 31.5394 31.2532 31.9414 31.4396C33.898 32.2197 35.6347 32.7819 38.2414 32.7819C40.8481 32.7819 43.1753 32.3461 43.1753 30.0025C43.1753 27.4441 40.2891 26.8819 37.8049 26.2881C34.2968 25.4448 31.3478 23.7581 31.3478 19.9837C31.3478 15.3945 34.8244 13.5215 39.9154 13.5215C42.3996 13.5215 44.4787 13.9258 45.782 14.8954C46.8687 15.7072 47.0225 16.6737 47.0225 17.4538C47.0225 18.2971 46.8372 18.5782 45.9359 18.2655C44.1677 17.6086 42.6445 17.1411 40.1007 17.1411C37.1202 17.1411 35.6944 17.9844 35.6944 19.7627H35.6975Z" fill="#C4D600"/>
<path d="M55.5899 19.7627C55.5899 22.2294 58.7242 22.5421 61.3309 23.2591C64.7133 24.1656 67.4142 25.7259 67.4142 29.7529C67.4142 33.78 64.93 36.4016 58.4761 36.4016C56.6137 36.4016 54.3776 36.2152 52.6722 35.4667C50.9952 34.7181 50.3765 33.6884 50.3765 32.1566C50.3765 31.408 50.5304 31.1585 50.8727 31.1585C51.0894 31.1585 51.4317 31.2532 51.8337 31.4396C53.7903 32.2197 55.5271 32.7819 58.1338 32.7819C60.7405 32.7819 63.0676 32.3461 63.0676 30.0025C63.0676 27.4441 60.1814 26.8819 57.6972 26.2881C54.1892 25.4448 51.2401 23.7581 51.2401 19.9837C51.2401 15.3945 54.7168 13.5215 59.8077 13.5215C62.2919 13.5215 64.371 13.9258 65.6743 14.8954C66.761 15.7072 66.9149 16.6737 66.9149 17.4538C66.9149 18.2971 66.7296 18.5782 65.8282 18.2655C64.0601 17.6086 62.5369 17.1411 59.993 17.1411C57.0126 17.1411 55.5867 17.9844 55.5867 19.7627H55.5899Z" fill="#C4D600"/>
<path d="M88.3682 13.8942C89.2382 13.8942 89.7658 14.049 89.7658 14.4564C89.7658 14.7691 89.4549 15.2366 88.7105 15.9535L80.702 23.7897L89.7344 34.2791C90.1678 34.8097 90.3876 35.214 90.3876 35.4667C90.3876 35.871 89.9228 35.9973 89.0529 35.9973H87.5328C85.7647 35.9973 85.6704 35.9657 84.7094 34.8097L76.0822 24.851V34.4338C76.0822 35.7446 75.8027 35.9941 74.4679 35.9941H73.3499C71.9837 35.9941 71.7356 35.7446 71.7356 34.4338V15.7672C71.7356 14.1121 71.9523 13.8942 73.6608 13.8942H74.157C75.8341 13.8942 76.0822 14.1121 76.0822 15.7672V22.978L82.6618 16.4526C85.0518 14.049 85.1146 13.8942 86.7885 13.8942H88.3714H88.3682Z" fill="#C4D600"/>
<path d="M103.233 36.4016C94.7282 36.4016 90.6611 31.8439 90.6611 25.1005C90.6611 18.3571 94.8821 13.5183 103.233 13.5183C111.584 13.5183 115.805 18.1992 115.805 25.1005C115.805 32.0018 111.801 36.4016 103.233 36.4016ZM103.233 32.7788C109.194 32.7788 111.333 29.2192 111.333 25.0689C111.333 20.9186 109.159 17.1411 103.233 17.1411C97.3067 17.1411 95.1616 20.7923 95.1616 25.0689C95.1616 29.3455 97.3035 32.7788 103.233 32.7788Z" fill="#C4D600"/>
<path d="M126.885 28.0347C127.258 29.0644 127.629 30.1888 127.877 31.2185C128.125 30.1888 128.468 29.0644 128.838 28.0347L133.744 15.1734C134.149 14.0805 134.425 13.8942 135.638 13.8942H137.377C138.307 13.8942 138.618 14.3617 138.279 15.205L130.364 34.8097C129.959 35.8078 129.683 35.9973 128.471 35.9973H127.23C125.958 35.9973 125.71 35.7162 125.336 34.7813L117.422 15.145C117.111 14.3648 117.359 13.8974 118.229 13.8974H120.123C121.332 13.8974 121.612 14.0837 122.017 15.1765L126.891 28.0379L126.885 28.0347Z" fill="#C4D600"/>
<path d="M151.507 29.7878C145.197 30.6501 142.01 26.5061 144.422 20.5808L150.784 4.94946C153.196 -0.975864 158.36 -1.68021 162.257 3.38285L172.533 16.7401C176.431 21.8031 174.455 26.6514 168.146 27.5137L151.504 29.7878H151.507ZM156.78 6.08651C157.628 5.96965 158.225 5.18319 158.108 4.3304C157.992 3.4776 157.21 2.87749 156.362 2.99435C155.514 3.11122 154.918 3.89768 155.034 4.75047C155.15 5.60327 155.932 6.20338 156.78 6.08651Z" fill="#C4D600"/>
<path d="M5.73658 42.8081V43.8964H3.58498V50.9342H2.25865V43.8964H0.0986328V42.8081H5.73658Z" fill="#285C4D"/>
<path d="M7.51335 50.6209C7.02493 50.3456 6.64176 49.9561 6.36387 49.4521C6.08597 48.9482 5.94702 48.3681 5.94702 47.7033C5.94702 47.0385 6.09018 46.4668 6.3765 45.9629C6.66282 45.4547 7.0544 45.0652 7.55125 44.7941C8.04809 44.5231 8.59968 44.3834 9.21442 44.3834C9.82916 44.3834 10.3807 44.5189 10.8776 44.7941C11.3744 45.0652 11.766 45.4547 12.0523 45.9629C12.3387 46.471 12.4818 47.0512 12.4818 47.7033C12.4818 48.3554 12.3345 48.9398 12.0397 49.4437C11.745 49.9518 11.345 50.3414 10.8355 50.6166C10.326 50.8919 9.76601 51.0316 9.15547 51.0316C8.54494 51.0316 8.00599 50.8919 7.51756 50.6166L7.51335 50.6209ZM10.1113 49.63C10.4102 49.4648 10.6502 49.2192 10.8397 48.8932C11.025 48.5671 11.1176 48.1691 11.1176 47.7033C11.1176 47.2375 11.0292 46.8394 10.8523 46.5176C10.6755 46.1958 10.4397 45.9502 10.145 45.7893C9.85022 45.6241 9.53442 45.5437 9.19337 45.5437C8.85231 45.5437 8.53652 45.6241 8.24599 45.7893C7.95546 45.9544 7.72388 46.1958 7.55546 46.5176C7.38703 46.8394 7.29861 47.2375 7.29861 47.7033C7.29861 48.3977 7.47546 48.9313 7.82914 49.3082C8.18283 49.685 8.62494 49.8756 9.15968 49.8756C9.50074 49.8756 9.82074 49.7951 10.1197 49.63H10.1113Z" fill="#285C4D"/>
<path d="M16.263 44.6883C16.6504 44.485 17.0883 44.3834 17.5767 44.3834C18.1325 44.3834 18.642 44.5231 19.1052 44.7984C19.5641 45.0736 19.9304 45.4632 20.1915 45.9629C20.4568 46.4626 20.5873 47.0342 20.5873 47.6821C20.5873 48.33 20.4568 48.9059 20.1915 49.4183C19.9262 49.9306 19.5641 50.3245 19.1052 50.6124C18.6462 50.9004 18.1367 51.0401 17.5767 51.0401C17.0883 51.0401 16.6546 50.9427 16.2757 50.7437C15.8967 50.5447 15.5851 50.2991 15.3451 50.0026V54H14.0188V44.4977H15.3451V45.4463C15.5683 45.1498 15.8757 44.9 16.263 44.6968V44.6883ZM18.9662 46.5303C18.7852 46.2085 18.5452 45.9629 18.2462 45.7935C17.9473 45.6241 17.6273 45.5437 17.2862 45.5437C16.9451 45.5437 16.6378 45.6284 16.3388 45.802C16.0399 45.9713 15.7999 46.2212 15.6188 46.5515C15.4378 46.8775 15.3451 47.2629 15.3451 47.7075C15.3451 48.1521 15.4378 48.5375 15.6188 48.872C15.7999 49.2023 16.0399 49.4564 16.3388 49.6258C16.6378 49.7951 16.9536 49.8841 17.2862 49.8841C17.6188 49.8841 17.9473 49.7951 18.2462 49.6215C18.5452 49.4479 18.7852 49.1896 18.9662 48.8551C19.1473 48.5205 19.2399 48.131 19.2399 47.6863C19.2399 47.2417 19.1473 46.8564 18.9662 46.5345V46.5303Z" fill="#285C4D"/>
<path d="M29.5387 44.701C29.9219 44.9127 30.2251 45.2219 30.444 45.6368C30.663 46.0518 30.7766 46.5473 30.7766 47.1316V50.93H29.4629V47.3307C29.4629 46.7548 29.3198 46.3101 29.0335 46.0052C28.7471 45.6961 28.3556 45.5437 27.8587 45.5437C27.3619 45.5437 26.9703 45.6961 26.6798 46.0052C26.3892 46.3144 26.2419 46.7548 26.2419 47.3307V50.93H24.9155V42.2831H26.2419V45.2388C26.465 44.9678 26.7513 44.7561 27.0966 44.6078C27.4419 44.4596 27.8208 44.3877 28.2292 44.3877C28.7177 44.3877 29.1514 44.4935 29.5345 44.7052L29.5387 44.701Z" fill="#285C4D"/>
<path d="M33.602 50.6209C33.1136 50.3456 32.7304 49.9561 32.4525 49.4521C32.1746 48.9482 32.0356 48.3681 32.0356 47.7033C32.0356 47.0385 32.1788 46.4668 32.4651 45.9629C32.7514 45.4547 33.143 45.0652 33.6399 44.7941C34.1367 44.5231 34.6883 44.3834 35.303 44.3834C35.9178 44.3834 36.4694 44.5189 36.9662 44.7941C37.4631 45.0652 37.8546 45.4547 38.141 45.9629C38.4273 46.471 38.5704 47.0512 38.5704 47.7033C38.5704 48.3554 38.4231 48.9398 38.1283 49.4437C37.8336 49.9518 37.4336 50.3414 36.9241 50.6166C36.4146 50.8919 35.8546 51.0316 35.2441 51.0316C34.6336 51.0316 34.0946 50.8919 33.6062 50.6166L33.602 50.6209ZM36.1999 49.63C36.4988 49.4648 36.7388 49.2192 36.9283 48.8932C37.1136 48.5671 37.2062 48.1691 37.2062 47.7033C37.2062 47.2375 37.1178 46.8394 36.941 46.5176C36.7641 46.1958 36.5283 45.9502 36.2336 45.7893C35.9388 45.6241 35.623 45.5437 35.282 45.5437C34.9409 45.5437 34.6251 45.6241 34.3346 45.7893C34.0441 45.9544 33.8125 46.1958 33.6441 46.5176C33.4757 46.8394 33.3872 47.2375 33.3872 47.7033C33.3872 48.3977 33.5641 48.9313 33.9178 49.3082C34.2715 49.685 34.7136 49.8756 35.2483 49.8756C35.5894 49.8756 35.9094 49.7951 36.2083 49.63H36.1999Z" fill="#285C4D"/>
<path d="M41.421 45.5775V49.143C41.421 49.3844 41.4757 49.558 41.5894 49.6639C41.7031 49.7697 41.8925 49.8206 42.1662 49.8206H42.9789V50.93H41.9347C41.3367 50.93 40.882 50.7903 40.562 50.5108C40.2462 50.2313 40.0862 49.774 40.0862 49.143V45.5775H39.3325V44.4893H40.0862V42.8886H41.421V44.4893H42.9789V45.5775H41.421Z" fill="#285C4D"/>
<path d="M50.0233 48.2072H45.1306C45.1685 48.7196 45.358 49.1346 45.6991 49.4479C46.0401 49.7613 46.457 49.9137 46.9538 49.9137C47.6654 49.9137 48.1707 49.6131 48.4654 49.016H49.897C49.7033 49.6088 49.3538 50.0916 48.8444 50.4727C48.3349 50.8495 47.7075 51.0401 46.958 51.0401C46.3475 51.0401 45.7959 50.9004 45.3117 50.6251C44.8275 50.3499 44.4485 49.9603 44.1748 49.4564C43.9012 48.9525 43.7622 48.3723 43.7622 47.7075C43.7622 47.0427 43.8969 46.4626 44.1622 45.9586C44.4275 45.4547 44.8064 45.0694 45.2906 44.7941C45.7749 44.5231 46.3307 44.3834 46.958 44.3834C47.5854 44.3834 48.0991 44.5147 48.5749 44.7814C49.0465 45.0482 49.417 45.4166 49.6781 45.8994C49.9391 46.3779 50.0738 46.9284 50.0738 47.5551C50.0738 47.7964 50.057 48.0166 50.0275 48.2114L50.0233 48.2072ZM48.6844 47.1316C48.6759 46.6404 48.5033 46.2466 48.1623 45.9502C47.8212 45.6538 47.4001 45.5056 46.8949 45.5056C46.4359 45.5056 46.0485 45.6538 45.7201 45.9459C45.3959 46.2381 45.2022 46.6319 45.1391 47.1316H48.6844Z" fill="#285C4D"/>
<path d="M52.6972 42.2788V50.9258H51.3708V42.2788H52.6972Z" fill="#285C4D"/>
<path d="M58.6003 50.6209C58.1118 50.3456 57.7287 49.9561 57.4508 49.4521C57.1729 48.9482 57.0339 48.3681 57.0339 47.7033C57.0339 47.0385 57.1771 46.4668 57.4634 45.9629C57.7497 45.4547 58.1413 45.0652 58.6382 44.7941C59.135 44.5231 59.6866 44.3834 60.3013 44.3834C60.9161 44.3834 61.4677 44.5189 61.9645 44.7941C62.4614 45.0652 62.8529 45.4547 63.1393 45.9629C63.4256 46.471 63.5687 47.0512 63.5687 47.7033C63.5687 48.3554 63.4214 48.9398 63.1266 49.4437C62.8319 49.9518 62.4319 50.3414 61.9224 50.6166C61.4129 50.8919 60.8529 51.0316 60.2424 51.0316C59.6319 51.0316 59.0929 50.8919 58.6045 50.6166L58.6003 50.6209ZM61.194 49.63C61.4929 49.4648 61.7329 49.2192 61.9224 48.8932C62.1077 48.5671 62.2003 48.1691 62.2003 47.7033C62.2003 47.2375 62.1119 46.8394 61.935 46.5176C61.7582 46.1958 61.5224 45.9502 61.2277 45.7893C60.9329 45.6241 60.6171 45.5437 60.2761 45.5437C59.935 45.5437 59.6192 45.6241 59.3287 45.7893C59.0382 45.9544 58.8066 46.1958 58.6382 46.5176C58.4697 46.8394 58.3813 47.2375 58.3813 47.7033C58.3813 48.3977 58.5582 48.9313 58.9118 49.3082C59.2655 49.685 59.7076 49.8756 60.2424 49.8756C60.5834 49.8756 60.9034 49.7951 61.2024 49.63H61.194Z" fill="#285C4D"/>
<path d="M67.5602 45.5775H66.3729V50.93H65.0381V45.5775H64.2844V44.4892H65.0381V44.0319C65.0381 43.2908 65.2318 42.7531 65.6234 42.4143C66.015 42.0755 66.6297 41.9062 67.4634 41.9062V43.0156C67.0592 43.0156 66.7771 43.0918 66.6171 43.2443C66.4529 43.3967 66.3729 43.6593 66.3729 44.0319V44.4892H67.5602V45.5775Z" fill="#285C4D"/>
<path d="M71.4169 45.5775H70.2296V50.93H68.8948V45.5775H68.1411V44.4892H68.8948V44.0319C68.8948 43.2908 69.0885 42.7531 69.4801 42.4143C69.8717 42.0755 70.4864 41.9062 71.3201 41.9062V43.0156C70.9159 43.0156 70.6338 43.0918 70.4738 43.2443C70.3096 43.3967 70.2296 43.6593 70.2296 44.0319V44.4892H71.4169V45.5775Z" fill="#285C4D"/>
<path d="M78.4108 48.2072H73.5181C73.556 48.7196 73.7455 49.1346 74.0865 49.4479C74.4276 49.7613 74.8444 49.9137 75.3413 49.9137C76.0529 49.9137 76.5581 49.6131 76.8529 49.016H78.2845C78.0908 49.6088 77.7413 50.0916 77.2318 50.4727C76.7223 50.8495 76.095 51.0401 75.3455 51.0401C74.735 51.0401 74.1834 50.9004 73.6992 50.6251C73.2149 50.3499 72.836 49.9603 72.5623 49.4564C72.2886 48.9525 72.1497 48.3723 72.1497 47.7075C72.1497 47.0427 72.2844 46.4626 72.5497 45.9586C72.8149 45.4547 73.1939 45.0694 73.6781 44.7941C74.1623 44.5231 74.7181 44.3834 75.3455 44.3834C75.9729 44.3834 76.4865 44.5147 76.9623 44.7814C77.4339 45.0482 77.8045 45.4166 78.0655 45.8994C78.3266 46.3779 78.4613 46.9284 78.4613 47.5551C78.4613 47.7964 78.4445 48.0166 78.415 48.2114L78.4108 48.2072ZM77.076 47.1316C77.0676 46.6404 76.895 46.2466 76.5539 45.9502C76.2129 45.6538 75.7918 45.5056 75.2865 45.5056C74.8276 45.5056 74.4402 45.6538 74.1118 45.9459C73.7876 46.2381 73.5939 46.6319 73.5307 47.1316H77.076Z" fill="#285C4D"/>
<path d="M81.8591 44.6586C82.1791 44.4766 82.5622 44.3834 83.0043 44.3834V45.7639H82.6675C82.1496 45.7639 81.7538 45.8951 81.4885 46.1619C81.2233 46.4287 81.0885 46.886 81.0885 47.5424V50.93H79.7622V44.4893H81.0885V45.4251C81.2822 45.099 81.5391 44.8407 81.8633 44.6586H81.8591Z" fill="#285C4D"/>
<path d="M85.1941 50.7606C84.7941 50.5785 84.4783 50.3287 84.2468 50.0111C84.0152 49.6935 83.8889 49.342 83.8762 48.9525H85.2489C85.2741 49.2235 85.4004 49.4521 85.6362 49.6342C85.872 49.8163 86.171 49.9095 86.5247 49.9095C86.8784 49.9095 87.1857 49.8375 87.392 49.6935C87.5984 49.5495 87.6994 49.3632 87.6994 49.1388C87.6994 48.8974 87.5857 48.7196 87.3584 48.601C87.131 48.4824 86.7689 48.3554 86.272 48.2157C85.792 48.0844 85.4004 47.9531 85.0973 47.8303C84.7941 47.7075 84.5331 47.5127 84.3141 47.2587C84.0952 47.0003 83.9815 46.6616 83.9815 46.2424C83.9815 45.8994 84.0825 45.586 84.2846 45.3023C84.4868 45.0186 84.7731 44.7941 85.152 44.629C85.5268 44.4638 85.9605 44.3834 86.4489 44.3834C87.1773 44.3834 87.7626 44.5697 88.2089 44.9381C88.6552 45.3065 88.891 45.8147 88.9247 46.4499H87.5984C87.5731 46.1619 87.4594 45.9332 87.2489 45.7596C87.0384 45.5902 86.7563 45.5013 86.3984 45.5013C86.0405 45.5013 85.7836 45.5691 85.5983 45.7003C85.4131 45.8316 85.3204 46.0095 85.3204 46.2254C85.3204 46.3948 85.3836 46.543 85.5057 46.6573C85.6278 46.7759 85.7794 46.8648 85.9605 46.9326C86.1373 47.0003 86.4026 47.0808 86.752 47.1824C87.2152 47.3052 87.5984 47.4323 87.8973 47.5635C88.1963 47.6906 88.4531 47.8811 88.6721 48.131C88.8868 48.3808 89.0005 48.7111 89.0089 49.1261C89.0089 49.4903 88.9078 49.8205 88.7057 50.1085C88.5036 50.3964 88.2215 50.6209 87.851 50.786C87.4847 50.9512 87.051 51.0316 86.5541 51.0316C86.0573 51.0316 85.5983 50.9385 85.1983 50.7564L85.1941 50.7606Z" fill="#285C4D"/>
<path d="M90.3563 50.7648C90.1921 50.5997 90.1121 50.4007 90.1121 50.1593C90.1121 49.9179 90.1921 49.7147 90.3563 49.5495C90.5205 49.3844 90.7184 49.3039 90.9626 49.3039C91.2068 49.3039 91.3921 49.3844 91.5563 49.5495C91.7205 49.7147 91.8005 49.9179 91.8005 50.1593C91.8005 50.4007 91.7205 50.6039 91.5563 50.7648C91.3921 50.93 91.1942 51.0105 90.9626 51.0105C90.731 51.0105 90.5205 50.93 90.3563 50.7648Z" fill="#285C4D"/>
<path d="M101.118 49.2701H97.7373L97.1562 50.93H95.7751L98.6678 42.7955H100.2L103.093 50.93H101.699L101.118 49.2701ZM100.748 48.1818L99.4341 44.4088L98.1078 48.1818H100.748Z" fill="#285C4D"/>
<path d="M105.674 42.2788V50.9258H104.348V42.2788H105.674Z" fill="#285C4D"/>
<path d="M116.251 44.4893L114.264 50.93H112.87L111.582 46.1746L110.293 50.93H108.899L106.899 44.4893H108.247L109.582 49.6681L110.942 44.4893H112.323L113.624 49.6427L114.95 44.4893H116.251Z" fill="#285C4D"/>
<path d="M117.43 45.9629C117.695 45.4632 118.061 45.0779 118.52 44.7984C118.979 44.5231 119.489 44.3834 120.049 44.3834C120.554 44.3834 120.992 44.4808 121.366 44.6798C121.741 44.8788 122.04 45.1244 122.268 45.4209V44.485H123.602V50.9258H122.268V49.9688C122.044 50.2736 121.737 50.5277 121.35 50.7267C120.962 50.93 120.52 51.0316 120.023 51.0316C119.472 51.0316 118.971 50.8919 118.512 50.6039C118.053 50.316 117.691 49.9222 117.425 49.4098C117.16 48.8974 117.025 48.3215 117.025 47.6736C117.025 47.0258 117.16 46.4541 117.425 45.9544L117.43 45.9629ZM121.994 46.5472C121.813 46.2212 121.573 45.9713 121.278 45.7977C120.983 45.6283 120.668 45.5394 120.326 45.5394C119.985 45.5394 119.67 45.6241 119.375 45.7893C119.08 45.9586 118.84 46.2042 118.659 46.5261C118.478 46.8479 118.385 47.2332 118.385 47.6779C118.385 48.1225 118.478 48.5121 118.659 48.8466C118.84 49.1811 119.08 49.4352 119.379 49.6131C119.678 49.7867 119.994 49.8756 120.326 49.8756C120.659 49.8756 120.983 49.7909 121.278 49.6173C121.573 49.4437 121.809 49.1938 121.994 48.8635C122.175 48.5332 122.268 48.1437 122.268 47.699C122.268 47.2544 122.175 46.8691 121.994 46.543V46.5472Z" fill="#285C4D"/>
<path d="M131.346 44.4893L127.417 53.9577H126.045L127.346 50.8241L124.823 44.4893H126.297L128.099 49.3971L129.969 44.4893H131.341H131.346Z" fill="#285C4D"/>
<path d="M133.548 50.7606C133.148 50.5785 132.832 50.3287 132.601 50.0111C132.369 49.6935 132.243 49.342 132.23 48.9525H133.603C133.624 49.2235 133.754 49.4521 133.99 49.6342C134.226 49.8163 134.521 49.9095 134.878 49.9095C135.236 49.9095 135.539 49.8375 135.746 49.6935C135.952 49.5495 136.053 49.3632 136.053 49.1388C136.053 48.8974 135.939 48.7196 135.712 48.601C135.485 48.4824 135.123 48.3554 134.626 48.2157C134.146 48.0844 133.754 47.9531 133.451 47.8303C133.148 47.7075 132.887 47.5127 132.668 47.2587C132.449 47.0003 132.335 46.6616 132.335 46.2424C132.335 45.8994 132.436 45.586 132.638 45.3023C132.841 45.0186 133.127 44.7941 133.506 44.629C133.881 44.4638 134.314 44.3834 134.803 44.3834C135.531 44.3834 136.116 44.5697 136.563 44.9381C137.009 45.3065 137.245 45.8147 137.278 46.4499H135.952C135.927 46.1619 135.813 45.9332 135.603 45.7596C135.392 45.5902 135.11 45.5013 134.756 45.5013C134.403 45.5013 134.142 45.5691 133.956 45.7003C133.771 45.8316 133.678 46.0095 133.678 46.2254C133.678 46.3948 133.742 46.543 133.864 46.6573C133.986 46.7759 134.137 46.8648 134.318 46.9326C134.495 47.0003 134.761 47.0808 135.11 47.1824C135.573 47.3052 135.956 47.4323 136.255 47.5635C136.554 47.6906 136.811 47.8811 137.03 48.131C137.245 48.3808 137.358 48.7111 137.367 49.1261C137.367 49.4903 137.266 49.8205 137.064 50.1085C136.862 50.3964 136.575 50.6209 136.209 50.786C135.843 50.9512 135.409 51.0316 134.912 51.0316C134.415 51.0316 133.956 50.9385 133.561 50.7564L133.548 50.7606Z" fill="#285C4D"/>
<path d="M150.908 44.701C151.308 44.9127 151.62 45.2218 151.851 45.6368C152.079 46.0518 152.192 46.5472 152.192 47.1316V50.93H150.879V47.3306C150.879 46.7547 150.736 46.3101 150.449 46.0052C150.163 45.6961 149.771 45.5436 149.275 45.5436C148.778 45.5436 148.386 45.6961 148.096 46.0052C147.805 46.3143 147.658 46.7547 147.658 47.3306V50.93H146.344V47.3306C146.344 46.7547 146.201 46.3101 145.915 46.0052C145.628 45.6961 145.237 45.5436 144.74 45.5436C144.243 45.5436 143.851 45.6961 143.561 46.0052C143.27 46.3143 143.127 46.7547 143.127 47.3306V50.93H141.801V44.4892H143.127V45.226C143.342 44.9635 143.62 44.756 143.952 44.6078C144.285 44.4596 144.643 44.3876 145.022 44.3876C145.531 44.3876 145.99 44.4977 146.395 44.7137C146.799 44.9339 147.106 45.2472 147.325 45.6622C147.519 45.2726 147.822 44.9635 148.23 44.7348C148.639 44.5062 149.081 44.3918 149.557 44.3918C150.062 44.3918 150.512 44.4977 150.908 44.7094V44.701Z" fill="#285C4D"/>
<path d="M155.249 50.6209C154.761 50.3456 154.378 49.9561 154.1 49.4521C153.822 48.9482 153.683 48.3681 153.683 47.7033C153.683 47.0385 153.826 46.4668 154.112 45.9629C154.399 45.4547 154.79 45.0652 155.287 44.7941C155.784 44.5231 156.336 44.3834 156.95 44.3834C157.565 44.3834 158.117 44.5189 158.613 44.7941C159.11 45.0652 159.502 45.4547 159.788 45.9629C160.075 46.471 160.218 47.0512 160.218 47.7033C160.218 48.3554 160.07 48.9398 159.776 49.4437C159.481 49.9476 159.081 50.3414 158.571 50.6166C158.062 50.8919 157.506 51.0316 156.891 51.0316C156.277 51.0316 155.742 50.8919 155.253 50.6166L155.249 50.6209ZM157.847 49.63C158.146 49.4648 158.386 49.2192 158.571 48.8932C158.757 48.5671 158.849 48.1691 158.849 47.7033C158.849 47.2375 158.761 46.8394 158.584 46.5176C158.407 46.1958 158.171 45.9502 157.877 45.7893C157.582 45.6241 157.266 45.5437 156.925 45.5437C156.584 45.5437 156.268 45.6241 155.978 45.7893C155.687 45.9544 155.456 46.1958 155.287 46.5176C155.119 46.8394 155.03 47.2375 155.03 47.7033C155.03 48.3977 155.207 48.9313 155.561 49.3082C155.914 49.685 156.357 49.8756 156.891 49.8756C157.232 49.8756 157.552 49.7951 157.851 49.63H157.847Z" fill="#285C4D"/>
<path d="M163.624 44.6586C163.944 44.4766 164.327 44.3834 164.769 44.3834V45.7639H164.433C163.915 45.7639 163.519 45.8951 163.254 46.1619C162.988 46.4287 162.854 46.886 162.854 47.5424V50.93H161.527V44.4893H162.854V45.4251C163.047 45.099 163.304 44.8407 163.624 44.6586Z" fill="#285C4D"/>
<path d="M171.809 48.2072H166.916C166.954 48.7196 167.144 49.1346 167.485 49.4479C167.826 49.7613 168.243 49.9137 168.739 49.9137C169.451 49.9137 169.956 49.6131 170.251 49.016H171.678C171.485 49.6088 171.135 50.0916 170.626 50.4727C170.116 50.8495 169.489 51.0401 168.735 51.0401C168.125 51.0401 167.573 50.9004 167.089 50.6251C166.605 50.3499 166.226 49.9603 165.948 49.4564C165.67 48.9525 165.535 48.3723 165.535 47.7075C165.535 47.0427 165.67 46.4626 165.935 45.9586C166.2 45.4547 166.579 45.0694 167.064 44.7941C167.548 44.5231 168.104 44.3834 168.731 44.3834C169.358 44.3834 169.872 44.5147 170.348 44.7814C170.819 45.0482 171.19 45.4166 171.451 45.8994C171.716 46.3779 171.847 46.9284 171.847 47.5551C171.847 47.7964 171.83 48.0166 171.8 48.2114L171.809 48.2072ZM170.474 47.1316C170.466 46.6404 170.293 46.2466 169.952 45.9502C169.611 45.6538 169.19 45.5056 168.685 45.5056C168.226 45.5056 167.834 45.6538 167.51 45.9459C167.186 46.2381 166.992 46.6319 166.929 47.1316H170.474Z" fill="#285C4D"/>
<path d="M173.089 50.7648C172.925 50.5997 172.845 50.4007 172.845 50.1593C172.845 49.9179 172.925 49.7147 173.089 49.5495C173.253 49.3844 173.456 49.3039 173.696 49.3039C173.936 49.3039 174.125 49.3844 174.289 49.5495C174.453 49.7147 174.533 49.9179 174.533 50.1593C174.533 50.4007 174.453 50.6039 174.289 50.7648C174.125 50.93 173.927 51.0105 173.696 51.0105C173.464 51.0105 173.253 50.93 173.089 50.7648Z" fill="#285C4D"/>
</svg>
